<?xml version="1.0" encoding="utf-8"?>
<!-- Generator: Adobe Illustrator 25.2.1, SVG Export Plug-In . SVG Version: 6.00 Build 0)  -->
<svg version="1.1" id="Layer_1" xmlns="http://www.w3.org/2000/svg" xmlns:xlink="http://www.w3.org/1999/xlink" x="0px" y="0px"
	 viewBox="0 0 800 182.73" style="enable-background:new 0 0 800 182.73;" xml:space="preserve">
<style type="text/css">
	.st0{fill:#FFFFFF;}
</style>
<g>
	<g>
		<path class="st0" d="M12.18,142.89h7.06l11.7,31.29H23.8l-2.37-6.97H9.73l-2.45,6.97H0.31L12.18,142.89z M11.53,162.08h8.11
			l-3.94-11.48H15.6L11.53,162.08z"/>
		<path class="st0" d="M45.84,142.89h6.88v12.01h12.67v-12.01h6.88v31.29h-6.88v-13.5H52.72v13.5h-6.88V142.89z"/>
		<path class="st0" d="M83.61,148.01h-6.22v-5.13h6.22V148.01z M77.39,151.52h6.22v22.66h-6.22V151.52z"/>
		<path class="st0" d="M97.29,151.52h4.56v4.17h-4.56v11.22c0,2.1,0.53,2.63,2.63,2.63c0.7,0,1.36-0.04,1.93-0.17v4.86
			c-1.05,0.18-2.41,0.22-3.64,0.22c-3.86,0-7.14-0.83-7.14-5.39v-13.37h-3.77v-4.17h3.77v-6.79h6.22V151.52z"/>
		<path class="st0" d="M105.44,158.49c0.35-5.79,5.57-7.58,10.65-7.58c4.51,0,9.95,1.01,9.95,6.44v11.79c0,2.06,0.22,4.12,0.79,5.04
			h-6.31c-0.22-0.7-0.4-1.45-0.44-2.19c-1.97,2.06-4.82,2.8-7.63,2.8c-4.34,0-7.71-2.15-7.71-6.79c0.09-10.3,15.34-4.78,15.08-9.86
			c0-2.63-1.84-3.07-4.03-3.07c-2.41,0-3.9,0.96-4.12,3.42H105.44z M119.81,163.09c-1.05,0.92-3.24,0.96-5.17,1.32
			c-1.93,0.35-3.68,1.05-3.68,3.33c0,2.28,1.8,2.89,3.81,2.89c4.87,0,5.04-3.81,5.04-5.22V163.09z"/>
		<path class="st0" d="M145.84,159.5c-0.39-2.59-1.93-3.9-4.6-3.9c-3.99,0-5.3,4.03-5.3,7.36c0,3.29,1.27,7.14,5.17,7.14
			c2.94,0,4.56-1.8,4.95-4.6h6.01c-0.83,6-4.91,9.29-10.91,9.29c-6.84,0-11.44-4.82-11.44-11.61c0-7.06,4.21-12.27,11.57-12.27
			c5.35,0,10.3,2.8,10.65,8.59H145.84z"/>
		<path class="st0" d="M156,142.89h6.22v11.79h0.13c1.58-2.59,4.29-3.77,6.62-3.77c6.62,0,8.28,3.73,8.28,9.34v13.94h-6.22v-12.8
			c0-3.73-1.05-5.57-3.99-5.57c-3.38,0-4.82,1.88-4.82,6.49v11.88H156V142.89z"/>
		<path class="st0" d="M187.95,148.01h-6.22v-5.13h6.22V148.01z M181.73,151.52h6.22v22.66h-6.22V151.52z"/>
		<path class="st0" d="M226.56,170.63c-2.45,3.16-5.57,4.29-8.59,4.29c-9.64,0-15.38-7.23-15.38-16.26
			c0-9.29,5.74-16.52,15.38-16.52c6.4,0,12.49,3.9,13.19,11.05h-6.57c-0.83-3.51-3.33-5.26-6.62-5.26c-6.18,0-8.5,5.26-8.5,10.74
			c0,5.22,2.32,10.47,8.5,10.47c4.51,0,7.06-2.36,7.45-6.75h-6.93v-5.13h13.15v16.92h-4.38L226.56,170.63z"/>
		<path class="st0" d="M236.55,151.52h5.92v4.21h0.09c1.18-2.85,4.12-4.82,7.23-4.82c0.48,0,0.92,0.09,1.36,0.22v5.79
			c-0.57-0.13-1.49-0.22-2.23-0.22c-4.6,0-6.14,3.24-6.14,7.28v10.21h-6.22V151.52z"/>
		<path class="st0" d="M263.72,150.91c7.14,0,11.75,4.73,11.75,11.96c0,7.19-4.6,11.92-11.75,11.92c-7.1,0-11.7-4.73-11.7-11.92
			C252.02,155.64,256.62,150.91,263.72,150.91z M263.72,170.1c4.25,0,5.52-3.59,5.52-7.23c0-3.64-1.27-7.27-5.52-7.27
			c-4.21,0-5.48,3.64-5.48,7.27C258.24,166.51,259.51,170.1,263.72,170.1z"/>
		<path class="st0" d="M299.44,174.18h-5.92v-3.16h-0.13c-1.58,2.59-4.3,3.77-6.92,3.77c-6.62,0-8.28-3.72-8.28-9.33v-13.94h6.22
			v12.8c0,3.73,1.05,5.57,3.99,5.57c3.37,0,4.82-1.89,4.82-6.49v-11.88h6.22V174.18z"/>
		<path class="st0" d="M303.29,151.52h5.92v2.89h0.09c1.53-2.45,3.94-3.51,6.75-3.51c7.1,0,10.3,5.74,10.3,12.18
			c0,6.05-3.29,11.7-9.95,11.7c-2.76,0-5.26-1.18-6.79-3.42h-0.09v10.78h-6.22V151.52z M320.12,162.92c0-3.64-1.45-7.32-5.43-7.32
			c-4.08,0-5.39,3.64-5.39,7.32c0,3.68,1.4,7.19,5.43,7.19C318.8,170.1,320.12,166.6,320.12,162.92z"/>
		<path class="st0" d="M359.82,153.4c-0.48-3.11-3.46-5.48-6.84-5.48c-6.18,0-8.5,5.26-8.5,10.74c0,5.22,2.32,10.47,8.5,10.47
			c4.21,0,6.57-2.85,7.1-7.01h6.66c-0.7,7.85-6.05,12.8-13.76,12.8c-9.64,0-15.38-7.23-15.38-16.26c0-9.29,5.74-16.52,15.38-16.52
			c6.84,0,12.67,4.03,13.5,11.26H359.82z"/>
		<path class="st0" d="M380.9,150.91c7.15,0,11.75,4.73,11.75,11.96c0,7.19-4.6,11.92-11.75,11.92c-7.1,0-11.7-4.73-11.7-11.92
			C369.19,155.64,373.8,150.91,380.9,150.91z M380.9,170.1c4.25,0,5.52-3.59,5.52-7.23c0-3.64-1.27-7.27-5.52-7.27
			c-4.21,0-5.48,3.64-5.48,7.27C375.42,166.51,376.69,170.1,380.9,170.1z"/>
		<path class="st0" d="M394.22,151.52h5.87v3.07h0.09c1.62-2.32,3.94-3.68,6.93-3.68c2.85,0,5.39,1.01,6.62,3.77
			c1.36-1.97,3.68-3.77,6.84-3.77c4.82,0,8.28,2.23,8.28,8.11v15.17h-6.22v-12.84c0-3.02-0.26-5.52-3.81-5.52
			c-3.51,0-4.16,2.94-4.16,5.74v12.62h-6.22v-12.71c0-2.63,0.18-5.65-3.77-5.65c-1.23,0-4.21,0.79-4.21,5.22v13.15h-6.22V151.52z"/>
		<path class="st0" d="M432.43,151.52h5.92v2.89h0.09c1.53-2.45,3.94-3.51,6.75-3.51c7.1,0,10.3,5.74,10.3,12.18
			c0,6.05-3.29,11.7-9.95,11.7c-2.76,0-5.26-1.18-6.79-3.42h-0.09v10.78h-6.22V151.52z M449.26,162.92c0-3.64-1.45-7.32-5.43-7.32
			c-4.08,0-5.39,3.64-5.39,7.32c0,3.68,1.4,7.19,5.43,7.19C447.94,170.1,449.26,166.6,449.26,162.92z"/>
		<path class="st0" d="M458.06,158.49c0.35-5.79,5.56-7.58,10.65-7.58c4.51,0,9.95,1.01,9.95,6.44v11.79c0,2.06,0.22,4.12,0.79,5.04
			h-6.31c-0.22-0.7-0.39-1.45-0.44-2.19c-1.97,2.06-4.82,2.8-7.63,2.8c-4.34,0-7.71-2.15-7.71-6.79c0.09-10.3,15.34-4.78,15.08-9.86
			c0-2.63-1.84-3.07-4.03-3.07c-2.41,0-3.9,0.96-4.12,3.42H458.06z M472.44,163.09c-1.05,0.92-3.24,0.96-5.17,1.32
			c-1.93,0.35-3.68,1.05-3.68,3.33c0,2.28,1.8,2.89,3.81,2.89c4.86,0,5.04-3.81,5.04-5.22V163.09z"/>
		<path class="st0" d="M482.6,151.52h5.92v3.16h0.13c1.58-2.59,4.29-3.77,6.92-3.77c6.62,0,8.28,3.73,8.28,9.34v13.94h-6.22v-12.8
			c0-3.73-1.05-5.57-3.99-5.57c-3.37,0-4.82,1.88-4.82,6.49v11.88h-6.22V151.52z"/>
		<path class="st0" d="M518.89,177.03c-1.36,3.64-3.55,5.13-7.8,5.13c-1.27,0-2.54-0.09-3.81-0.22v-5.13
			c1.18,0.13,2.41,0.26,3.64,0.22c1.62-0.18,2.41-1.45,2.41-2.85c0-0.48-0.09-0.97-0.26-1.4l-7.98-21.26h6.66l5.13,15.52h0.09
			l4.95-15.52h6.44L518.89,177.03z"/>
	</g>
	<g>
		<g>
			<path class="st0" d="M50.43,65.57h35.18C81.05,81.75,66.2,93.65,48.58,93.65c-21.19,0-38.46-17.26-38.46-38.49
				c0-21.21,17.28-38.48,38.46-38.48c16.04,0,29.8,9.87,35.58,23.85H94.6C88.39,21.02,70.12,6.88,48.58,6.88
				c-26.6,0-48.28,21.65-48.28,48.28c0,26.63,21.68,48.3,48.28,48.3c15.21,0,29.36-7.63,37.63-18.67v16.59h8.94V55.92H50.43V65.57z"
				/>
			<rect x="111.48" y="9.88" class="st0" width="9.63" height="91.49"/>
			<rect x="396.02" y="9.88" class="st0" width="9.64" height="91.38"/>
			<path class="st0" d="M171.31,94.75c-14.81,0-26.82-12.72-26.82-27.48c0-14.8,12.01-27.41,26.82-27.41
				c14.77,0,26.82,12.61,26.82,27.41C198.13,82.03,186.08,94.75,171.31,94.75 M171.31,30.71c-20.17,0-36.57,16.39-36.57,36.56
				c0,20.16,16.39,36.54,36.57,36.54c20.15,0,36.57-16.41,36.57-36.55C207.87,47.09,191.46,30.71,171.31,30.71"/>
			<path class="st0" d="M255.61,94.75c-14.82,0-26.83-12.72-26.83-27.49c0-14.8,12.02-27.41,26.83-27.41
				c14.78,0,26.8,12.61,26.8,27.41C282.41,82.03,270.39,94.75,255.61,94.75 M256.02,30.03c-10.82,0-20.52,4.77-27.25,12.3V9.88
				h-9.62v91.5h9.62v-9.2c6.73,7.53,16.43,12.27,27.25,12.27c20.31,0,36.8-16.64,36.8-37.19C292.82,46.7,276.33,30.03,256.02,30.03"
				/>
			<path class="st0" d="M342.56,94.71c-14.78,0-26.82-12.72-26.82-27.51c0-14.79,12.04-27.41,26.82-27.41
				c14.8,0,26.81,12.62,26.81,27.41C369.37,81.99,357.36,94.71,342.56,94.71 M369.45,42.46c-6.82-7.62-16.68-12.43-27.71-12.43
				c-20.56,0-37.22,16.67-37.22,37.23c0,20.55,16.66,37.19,37.22,37.2c11.03,0,20.89-4.82,27.71-12.41v9.33h9.73v-67h-9.73V42.46z"
				/>
			<rect x="659.13" y="0.57" class="st0" width="17.08" height="16.18"/>
			<polygon class="st0" points="440,9.88 424.36,9.88 424.36,86.59 424.36,101.29 475.62,101.29 475.62,86.59 440,86.59 			"/>
			<rect x="659.13" y="29.36" class="st0" width="17.08" height="71.8"/>
			<path class="st0" d="M518.98,88.82c-11.42,0-20.71-9.94-20.71-22.19c0-12.25,9.29-22.18,20.71-22.18
				c11.42,0,20.7,9.93,20.7,22.18C539.68,78.88,530.4,88.82,518.98,88.82 M518.98,29.12c-20.71,0-37.52,16.8-37.52,37.51
				s16.81,37.5,37.52,37.5c20.7,0,37.49-16.78,37.49-37.5S539.68,29.12,518.98,29.12"/>
			<path class="st0" d="M747.41,76.73C743.99,84.01,736.99,89,728.89,89c-11.43,0-20.71-9.97-20.71-22.22
				c0-13.38,9.28-22.2,20.71-22.2c7.71,0,14.45,4.52,18.01,11.2h17.88c-4.68-15.36-18.99-26.54-35.9-26.54
				c-20.71,0-37.55,16.81-37.55,37.57c0,20.71,16.85,37.52,37.55,37.52c17.29,0,31.81-11.69,36.18-27.59H747.41z"/>
			<path class="st0" d="M602.37,126.11c-7.64,0-14.96-4.01-19.4-10.03l-15.17,7.39c7.16,11.23,19.12,18.7,34.57,18.68
				c20,0,36.37-15.81,37.99-34.98H623.2C621.73,117.87,612.97,126.11,602.37,126.11"/>
			<path class="st0" d="M603.16,89.17c-11.38,0-20.61-9.93-20.61-22.12c0-12.2,9.24-22.1,20.61-22.1c11.41,0,20.66,9.89,20.66,22.1
				C623.82,79.24,614.57,89.17,603.16,89.17 M625.1,36.84c-6.18-4.46-13.73-7.14-21.94-7.14c-20.61,0-37.36,16.72-37.36,37.37
				c0,20.63,16.74,37.34,37.36,37.34c20.61,0,37.28-16.63,37.37-37.18v-37.8H625.1V36.84z"/>
		</g>
		<g>
			<path class="st0" d="M779.45,16.76c0-5.95,4.51-10.32,10.14-10.32c5.64,0,10.11,4.37,10.11,10.32c0,5.92-4.47,10.28-10.11,10.28
				C783.95,27.04,779.45,22.68,779.45,16.76z M798.14,16.76c0-5.18-3.62-8.98-8.56-8.98c-4.89,0-8.52,3.8-8.52,8.98
				c0,5.14,3.63,8.91,8.52,8.91C794.52,25.67,798.14,21.9,798.14,16.76z M785.57,11.16h5.11c2.01,0,3.52,1.23,3.52,3.1
				c0,1.27-0.66,2.25-2.21,2.64v0.04c1.27,0.32,1.69,0.95,1.83,2.29c0.18,1.51,0.18,2.64,0.53,2.78v0.18h-2.11
				c-0.32-0.14-0.36-1.3-0.46-2.57c-0.07-1.19-0.74-1.86-2.08-1.86h-1.97v4.44h-2.15V11.16z M787.72,16.09h2.47
				c1.23,0,1.87-0.63,1.87-1.58c0-0.92-0.6-1.55-1.83-1.55h-2.5V16.09z"/>
		</g>
	</g>
</g>
</svg>
